<svg width="874" height="227" shape-rendering="geometricPrecision" text-rendering="geometricPrecision" image-rendering="optimizeQuality" fill-rule="evenodd" clip-rule="evenodd"><path fill="#487bff" d="M444.5 11.5h46a2501 2501 0 0 0 1 100 729.387 729.387 0 0 1 23.5-22 46.33 46.33 0 0 0 9-13c.711-1.867.211-3.367-1.5-4.5a105.745 105.745 0 0 0-11.5-2.5 24.935 24.935 0 0 1-.5-7h51a13.115 13.115 0 0 1-1 7c-6.995.831-13.328 3.331-19 7.5l-24 22a1678.558 1678.558 0 0 0 46 63c.667.667 1.333.667 2 0-5.874-14.499-2.541-26.499 10-36a93.76 93.76 0 0 1 16-9 993.006 993.006 0 0 1 33.5-11.5c.667-8 .667-16 0-24-1.807-5.807-5.64-9.64-11.5-11.5a64.247 64.247 0 0 0-16 0 28.4 28.4 0 0 0-7.5 4.5c-.667 1-.667 2 0 3 3.805 4.278 5.972 9.278 6.5 15-.183 6.201-3.183 10.368-9 12.5-12.863 1.819-19.863-3.848-21-17 1.468-11.806 7.801-19.806 19-24 8.802-3.694 17.968-5.194 27.5-4.5 12.005-.975 23.171 1.525 33.5 7.5 6.559 5.284 10.393 12.117 11.5 20.5l1 66c2.144 4.886 4.977 5.219 8.5 1 2.205 1.371 3.872 3.204 5 5.5-8.866 12.846-20.866 17.179-36 13-4.945-2.946-8.445-7.112-10.5-12.5-12.399 12.13-27.232 16.63-44.5 13.5-4.214-.774-7.881-2.607-11-5.5-.886.825-1.219 1.825-1 3h-56c-.163-2.357.003-4.69.5-7a167.912 167.912 0 0 1 7.5-2c1.131-1.574 1.298-3.241.5-5a758.946 758.946 0 0 0-27-38l-4 4a256.122 256.122 0 0 0 0 32c1.984 5.646 5.984 8.646 12 9 .497 2.31.663 4.643.5 7h-59v-8c7.269.565 11.436-2.768 12.5-10 .667-41 .667-82 0-123-1.239-7.076-5.406-10.743-12.5-11v-8Zm179 104c1.329 5.124 1.995 10.624 2 16.5 3.087 17.579-4.247 25.579-22 24-6.174-6.441-7.674-13.941-4.5-22.5 2.45-4.784 5.95-8.617 10.5-11.5a130.32 130.32 0 0 1 14-6.5Z" opacity=".975"/><path fill="#487bff" d="M247.5 23.5h6v39h22v11h-22c-.443 25.704.057 51.371 1.5 77 3.1 5.478 7.6 6.978 13.5 4.5a62.524 62.524 0 0 0 8.5-9.5 14.325 14.325 0 0 1 5.5 2.5c-10.96 25.49-28.96 32.49-54 21-3.923-3.677-6.423-8.177-7.5-13.5a3360.51 3360.51 0 0 1-.5-82h-13c-.163-2.357.003-4.69.5-7 17.221-10.717 30.388-25.05 39.5-43ZM416.5 23.5h6v39h22v11h-22c-.443 25.704.057 51.371 1.5 77 3.1 5.478 7.6 6.978 13.5 4.5a62.524 62.524 0 0 0 8.5-9.5 14.325 14.325 0 0 1 5.5 2.5c-10.96 25.49-28.96 32.49-54 21-3.923-3.677-6.423-8.177-7.5-13.5a3360.51 3360.51 0 0 1-.5-82h-13c-.163-2.357.003-4.69.5-7 17.221-10.717 30.388-25.05 39.5-43Z" opacity=".988"/><path fill="#487bff" d="M43.5 59.5c13.016-1.1 25.683.4 38 4.5 10.328.5 20.661.666 31 .5v11a64.873 64.873 0 0 0-16 1c5.544 9.957 7.378 20.623 5.5 32-4.407 13.402-13.574 21.569-27.5 24.5a285.984 285.984 0 0 1-29 2c-7.503 2.851-10.337 8.017-8.5 15.5a6.977 6.977 0 0 0 3.5 2.5 623.912 623.912 0 0 0 44 2c21.783 3.438 30.616 15.938 26.5 37.5-2.577 7.913-7.411 14.08-14.5 18.5-14.04 6.817-28.874 9.65-44.5 8.5-13.407 1.016-26.24-1.151-38.5-6.5-8.41-7.034-10.244-15.534-5.5-25.5 3.968-3.402 8.468-5.902 13.5-7.5-13.445-7.339-16.612-17.839-9.5-31.5 5.987-7.576 13.487-13.076 22.5-16.5C8.477 121.262 1.31 103.095 13 77.5c8.11-9.634 18.276-15.634 30.5-18Zm6 10c9.344-2.249 15.51 1.085 18.5 10a141.762 141.762 0 0 1 1 32c-2.612 12.059-9.778 15.892-21.5 11.5-2.73-2.626-4.564-5.793-5.5-9.5-2.273-12.76-1.94-25.427 1-38 1.494-2.814 3.66-4.814 6.5-6Zm-14 114c16.29.617 32.623 1.45 49 2.5 5.97 2.103 8.136 6.27 6.5 12.5a17.833 17.833 0 0 1-4.5 5.5 49.723 49.723 0 0 1-15 5c-11.798 1.131-23.465.465-35-2-5.314-1.653-8.98-4.986-11-10 1.632-5.793 4.965-10.293 10-13.5Z" opacity=".976"/><path fill="#487bff" d="M144.5 59.5c11.049-.35 22.049.15 33 1.5 14.291 3.29 22.791 12.124 25.5 26.5l1 66c2.144 4.886 4.977 5.219 8.5 1 2.205 1.371 3.872 3.204 5 5.5-9.546 13.768-22.212 17.768-38 12a32.64 32.64 0 0 1-8.5-11.5c-12.399 12.13-27.232 16.63-44.5 13.5-16.133-5.532-21.966-16.699-17.5-33.5 6.073-11.403 15.24-19.236 27.5-23.5a993.006 993.006 0 0 1 33.5-11.5c.667-8 .667-16 0-24-1.807-5.807-5.64-9.64-11.5-11.5a64.247 64.247 0 0 0-16 0 28.4 28.4 0 0 0-7.5 4.5c-.667 1-.667 2 0 3 5.02 5.391 7.02 11.725 6 19-4.064 8.11-10.564 10.943-19.5 8.5-6.405-3.803-9.738-9.47-10-17 .78-9.233 5.114-16.233 13-21 6.521-3.225 13.188-5.725 20-7.5Zm24 56c1.329 5.124 1.995 10.624 2 16.5 3.087 17.579-4.247 25.579-22 24-6.174-6.441-7.674-13.941-4.5-22.5 2.45-4.784 5.95-8.617 10.5-11.5a130.32 130.32 0 0 1 14-6.5Z" opacity=".972"/><path fill="#487bff" d="M318.5 59.5c33.669-3.257 54.836 11.41 63.5 44 4.61 24.42-2.223 44.92-20.5 61.5-12.996 8.867-27.329 11.867-43 9-25.112-7.455-38.945-24.288-41.5-50.5-2.414-32.233 11.42-53.566 41.5-64Zm6 10c10.874-1.949 17.708 2.385 20.5 13a73.616 73.616 0 0 1 2 11 285.506 285.506 0 0 1-2 55c-1.43 12.44-8.264 17.607-20.5 15.5-5.277-3.371-8.443-8.204-9.5-14.5a266.148 266.148 0 0 1-1-64c1.007-7.138 4.507-12.471 10.5-16Z" opacity=".975"/><path fill="#487bff" d="M707.5 59.5c7.674-.166 15.341 0 23 .5 9.633 1.56 17.466 6.06 23.5 13.5 5.581 9.523 4.415 18.023-3.5 25.5-7.973 3.167-14.806 1.667-20.5-4.5-1.863-7.483-3.03-14.983-3.5-22.5-8.318-4.346-15.485-2.846-21.5 4.5a46.591 46.591 0 0 0-5 17 196.152 196.152 0 0 0 0 28c1.405 13.655 7.572 24.488 18.5 32.5 14.461 5.625 26.461 2.292 36-10 1.049-.492 2.049-.326 3 .5 3.602-9.772 9.936-17.272 19-22.5a237.996 237.996 0 0 1 43-16 102.19 102.19 0 0 0 .5-24.5c-1.807-5.807-5.64-9.64-11.5-11.5a64.247 64.247 0 0 0-16 0 28.4 28.4 0 0 0-7.5 4.5c-.667 1-.667 2 0 3 3.805 4.278 5.972 9.278 6.5 15-.183 6.201-3.183 10.368-9 12.5-12.863 1.819-19.863-3.848-21-17 1.468-11.806 7.801-19.806 19-24a83.8 83.8 0 0 1 14-4c9-.667 18-.667 27 0 17.389 1.395 27.889 10.561 31.5 27.5l1 66c.637 1.803 1.803 3.136 3.5 4 1.997-1.247 3.997-2.081 6-2.5 2.602 1.554 3.769 3.72 3.5 6.5-9.943 12.726-22.443 16.226-37.5 10.5a32.64 32.64 0 0 1-8.5-11.5c-15.238 14.511-32.738 18.011-52.5 10.5-5.924-4.343-9.424-10.176-10.5-17.5-12.316 17.393-29.149 24.226-50.5 20.5-17.777-4.778-30.277-15.612-37.5-32.5-8.286-24.947-4.286-47.614 12-68 7.337-6.916 15.837-11.583 25.5-14Zm111 56c1.329 5.124 1.995 10.624 2 16.5 3.087 17.579-4.247 25.579-22 24-6.174-6.441-7.674-13.941-4.5-22.5 2.45-4.784 5.95-8.617 10.5-11.5a130.32 130.32 0 0 1 14-6.5Z" opacity=".972"/></svg>